<svg id="Line" height="512" viewBox="0 0 64 64" width="512" xmlns="http://www.w3.org/2000/svg"><path d="m20 45h24a8 8 0 0 1 8 8v8a0 0 0 0 1 0 0h-40a0 0 0 0 1 0 0v-8a8 8 0 0 1 8-8z" fill="#5bcbfa"/><path d="m29 49h6l1 12h-8z" fill="#ec455a"/><path d="m23 45 2 8 5-4-1-4z" fill="#fff"/><path d="m41 45-2 8-5-4 1-4z" fill="#fff"/><path d="m38 45-6 6-6-6 1-12h10z" fill="#ffcbbe"/><path d="m32 40a13 13 0 0 1 -13-13v-13a6 6 0 0 1 2.4-4.8 6 6 0 0 1 3.6-1.2h14a6 6 0 0 1 3.6 1.2 6 6 0 0 1 2.4 4.8v13a13 13 0 0 1 -13 13z" fill="#ffddce"/><path d="m17 19h2a0 0 0 0 1 0 0v7a0 0 0 0 1 0 0h-2a2 2 0 0 1 -2-2v-3a2 2 0 0 1 2-2z" fill="#ffcbbe"/><path d="m47 19h2a0 0 0 0 1 0 0v7a0 0 0 0 1 0 0h-2a2 2 0 0 1 -2-2v-3a2 2 0 0 1 2-2z" fill="#ffcbbe" transform="matrix(-1 0 0 -1 94 45)"/><path d="m48 15v4h-4.764a2 2 0 0 1 -1.789-1.106l-2.618-5.236a3 3 0 0 0 -2.683-1.658h-.115a3 3 0 0 0 -2.785 1.886l-.469 1.172a4 4 0 0 1 -2.815 2.412l-10.962 2.53h-3v-4a12 12 0 0 1 12-12h8a12 12 0 0 1 12 12z" fill="#3e3d42"/><path d="m44 44h-5.08l-.39-4.63a14 14 0 0 0 7.47-12.37h1a3.009 3.009 0 0 0 3-3v-3a2.986 2.986 0 0 0 -1-2.22v-3.78a13.012 13.012 0 0 0 -13-13h-8a13.012 13.012 0 0 0 -13 13v3.78a2.986 2.986 0 0 0 -1 2.22v3a3.009 3.009 0 0 0 3 3h1a14 14 0 0 0 7.47 12.37l-.39 4.63h-5.08a9.014 9.014 0 0 0 -9 9v8a1 1 0 0 0 1 1h40a1 1 0 0 0 1-1v-8a9.014 9.014 0 0 0 -9-9zm4-23v3a1 1 0 0 1 -1 1h-1v-5h1a1 1 0 0 1 1 1zm-30 4h-1a1 1 0 0 1 -1-1v-3a1 1 0 0 1 1-1h1zm-1-7v-3a11.007 11.007 0 0 1 11-11h8a11.007 11.007 0 0 1 11 11v3h-3.76a1 1 0 0 1 -.9-.56l-2.62-5.23a3.976 3.976 0 0 0 -3.57-2.21h-.12a3.961 3.961 0 0 0 -3.71 2.52l-.47 1.16a3.018 3.018 0 0 1 -2.11 1.82l-10.85 2.5zm3 9v-7.2l10.18-2.35a5.019 5.019 0 0 0 3.53-3.02l.47-1.17a1.972 1.972 0 0 1 1.85-1.26h.12a1.993 1.993 0 0 1 1.79 1.11l2.62 5.23a2.988 2.988 0 0 0 2.68 1.66h.76v7a12 12 0 0 1 -24 0zm16.96 17.62-4.96 4.97-4.96-4.97.36-4.41a13.787 13.787 0 0 0 9.2 0zm-9.88 15.38h-14.08v-7a7.008 7.008 0 0 1 7-7h2.22l1.81 7.24a1.01 1.01 0 0 0 .65.71 1.185 1.185 0 0 0 .32.05 1 1 0 0 0 .62-.22l2.12-1.69zm-1.49-8.75-1.31-5.25h1.31l2.91 2.92zm3.5 8.75.8-9.63.04-.03 1.36 1.37a1.014 1.014 0 0 0 1.42 0l1.36-1.37.04.03.8 9.63zm6.41-11.08 2.91-2.92h1.31l-1.31 5.25zm15.5 11.08h-14.08l-.66-7.91 2.12 1.69a1 1 0 0 0 .62.22 1.127 1.127 0 0 0 .32-.05 1.01 1.01 0 0 0 .65-.71l1.81-7.24h2.22a7.008 7.008 0 0 1 7 7z"/><path d="m27 21a1 1 0 0 0 -1 1v2a1 1 0 0 0 2 0v-2a1 1 0 0 0 -1-1z"/><path d="m37 25a1 1 0 0 0 1-1v-2a1 1 0 0 0 -2 0v2a1 1 0 0 0 1 1z"/></svg>