<svg height="512" viewBox="0 0 64 64" width="512" xmlns="http://www.w3.org/2000/svg"><g id="find-avatar-user-business"><g fill="#78b9eb"><path d="m15 57h6v4h-6z"/><path d="m22 52.46v4.54h-8v-4.54a15.085 15.085 0 0 0 8 0z"/><path d="m35 48.18v12.82h-6v-12.82-5.18h6z"/><path d="m22 33.75a6.3 6.3 0 0 0 .53.37 5 5 0 1 1 -5.94-6.92 17.2 17.2 0 0 0 5.4 6.55z"/><path d="m28 43v3h-20v-5a4 4 0 0 1 4-4h12a3.984 3.984 0 0 1 3 1.36v4.64z"/><path d="m43 57h6v4h-6z"/><path d="m50 52.46v4.54h-8v-4.54a15.085 15.085 0 0 0 8 0z"/><path d="m47.41 27.2a5 5 0 1 1 -5.94 6.92c.18-.11.36-.24.54-.37a17.2 17.2 0 0 0 5.4-6.55z"/><path d="m56 41v5h-20v-3h1v-4.64a3.984 3.984 0 0 1 3-1.36h12a4 4 0 0 1 4 4z"/><path d="m38 10v3h-12v-6l3 1h7a2.006 2.006 0 0 1 2 2z"/><path d="m22 33.74v-4.74a2.006 2.006 0 0 1 2-2h5a3 3 0 0 0 6 0h5a2.006 2.006 0 0 1 2 2v4.74l.01.01c-.18.13-.36.26-.54.37a16.749 16.749 0 0 1 -4.47 2.14 17.262 17.262 0 0 1 -10 0 16.749 16.749 0 0 1 -4.47-2.14 6.3 6.3 0 0 1 -.53-.37z"/><path d="m37 13v6a5.029 5.029 0 0 1 -3 4.59 5 5 0 0 1 -5.54-1.05 5.022 5.022 0 0 1 -1.46-3.54v-6z"/></g><path d="m49.82 22.47a18.292 18.292 0 0 0 .18-2.47 18 18 0 0 0 -36 0 18.292 18.292 0 0 0 .18 2.47 15.989 15.989 0 0 0 -1.18 30.72v3.81a1 1 0 0 0 1 1v3a1 1 0 0 0 1 1h6a1 1 0 0 0 1-1v-3a1 1 0 0 0 1-1v-3.81a15.972 15.972 0 0 0 5-2.74v10.55a1 1 0 0 0 1 1h6a1 1 0 0 0 1-1v-10.55a15.972 15.972 0 0 0 5 2.74v3.81a1 1 0 0 0 1 1v3a1 1 0 0 0 1 1h6a1 1 0 0 0 1-1v-3a1 1 0 0 0 1-1v-3.81a15.989 15.989 0 0 0 -1.18-30.72zm-17.82-18.47a16.015 16.015 0 0 1 11 27.64v-2.64a3.009 3.009 0 0 0 -3-3h-5v-1.81a6 6 0 0 0 3-5.19v-1h.5a2.5 2.5 0 0 0 .49-4.95c0-.02.01-.03.01-.05v-3a3.009 3.009 0 0 0 -3-3h-6.84l-2.84-.95a1 1 0 0 0 -.9.14.983.983 0 0 0 -.42.81v6c0 .02.01.03.01.05a2.5 2.5 0 0 0 .49 4.95h.5v1a6 6 0 0 0 3 5.19v1.81h-5a3.009 3.009 0 0 0 -3 3v2.64a16.015 16.015 0 0 1 11-27.64zm-8 34a2.963 2.963 0 0 1 2 .79v4.21a1 1 0 0 0 1 1v1h-18v-4a3.009 3.009 0 0 1 3-3zm-10-6a4 4 0 0 1 2.11-3.51 17.893 17.893 0 0 0 5.07 5.91 3.987 3.987 0 0 1 -7.18-2.4zm8.46 4c.14-.15.26-.32.39-.49.29.17.59.33.89.49zm.54-2.76v-4.24a1 1 0 0 1 1-1h4.14a3.983 3.983 0 0 0 7.72 0h4.14a1 1 0 0 1 1 1v4.24a16.043 16.043 0 0 1 -4.29 2.06 16.251 16.251 0 0 1 -9.42 0 16.043 16.043 0 0 1 -4.29-2.06zm5-19.24h8v5a4 4 0 0 1 -8 0zm-1-2v-3.61l1.68.56a1.185 1.185 0 0 0 .32.05h7a1 1 0 0 1 1 1v2zm6.73 16a2 2 0 0 1 -3.46 0zm-2.73-2v-1.09a5.6 5.6 0 0 0 2 0v1.09zm10.15 9.51c.13.17.25.34.39.49h-1.28c.3-.16.6-.32.89-.49zm-4.15 8.49a1 1 0 0 0 1-1v-4.21a2.963 2.963 0 0 1 2-.79h12a3.009 3.009 0 0 1 3 3v4h-18zm9-8a3.988 3.988 0 0 1 -3.18-1.6 17.893 17.893 0 0 0 5.07-5.91 3.99 3.99 0 0 1 -1.89 7.51zm-8-20v-1h.5a.5.5 0 0 1 0 1zm-12-1v1h-.5a.5.5 0 0 1 0-1zm-6 45h-4v-2h4zm1-4h-6v-2.29a16.406 16.406 0 0 0 3 .29 15.814 15.814 0 0 0 3-.3zm7-8.24a13.986 13.986 0 1 1 -13.45-23.32 19.313 19.313 0 0 0 .72 2.23 5.973 5.973 0 0 0 -1.73 9.33h-1.54a5 5 0 0 0 -5 5v5a1 1 0 0 0 1 1h20zm6 12.24h-4v-16h4zm-6-18v-4.44a18.5 18.5 0 0 0 4 .44h.96v-.05a19.449 19.449 0 0 0 3.04-.39v4.44zm20 18h-4v-2h4zm1-4h-6v-2.3a15.814 15.814 0 0 0 3 .3 16.406 16.406 0 0 0 3-.29zm-3-4a13.974 13.974 0 0 1 -10-4.24v-.76h20a1 1 0 0 0 1-1v-5a5 5 0 0 0 -5-5h-1.54a5.973 5.973 0 0 0 -1.73-9.33 19.313 19.313 0 0 0 .72-2.23 14 14 0 0 1 -3.45 27.56z" fill="#006df0"/></g></svg>